<svg width="93" height="93" viewBox="0 0 93 93" fill="none" xmlns="http://www.w3.org/2000/svg">
<g clip-path="url(#clip0_2_3)">
<rect width="93" height="93" rx="24" fill="#01AF3E"/>
<path d="M13.5977 21.057C17.6233 16.3104 17.852 16.2801 29.487 25.0348C49.1276 39.7491 50.1799 49.4392 34.23 69.5754C26.2702 79.7585 26.0415 79.7888 20.9178 76.2556L15.535 72.5227L25.05 60.027L34.3364 47.5616L22.122 37.9475C15.3819 32.7563 9.84654 27.8735 9.75504 27.1835C9.66354 26.4935 11.3866 23.6906 13.5977 21.057Z" fill="white"/>
<path d="M51.304 20.5317C54.7144 16.3555 55.6918 16.6914 68.407 26.4095C86.6019 40.5212 87.5119 47.3827 74.0823 65.6883C64.4003 78.8421 64.4306 79.0708 59.0116 75.1346L53.3937 71.4576L62.9376 59.0203L72.2523 46.6135L60.0257 37.0633C53.2789 31.9068 47.7385 27.0558 47.6475 26.3696C47.5565 25.6835 49.0865 23.1531 51.304 20.5317Z" fill="white"/>
</g>
<defs>
<clipPath id="clip0_2_3">
<rect width="93" height="93" rx="24" fill="white"/>
</clipPath>
</defs>
</svg>
