<svg width="458" height="93" viewBox="0 0 458 93" fill="none" xmlns="http://www.w3.org/2000/svg">
<path d="M112 47.3014C112 44.4597 112.36 41.7329 113.079 39.1208C113.798 36.5088 114.805 34.069 116.099 31.8014C117.422 29.5338 119.004 27.4815 120.845 25.6444C122.686 23.8074 124.743 22.2287 127.015 20.9083C129.287 19.588 131.732 18.569 134.35 17.8514C136.967 17.1338 139.714 16.775 142.591 16.775C145.697 16.775 148.732 17.2199 151.695 18.1097C154.686 18.9995 157.419 20.3343 159.893 22.1139C162.395 23.8648 164.538 26.075 166.322 28.7444C168.134 31.3852 169.399 34.4708 170.118 38.0014H162.179C161.518 35.6477 160.554 33.5954 159.289 31.8444C158.052 30.0648 156.57 28.6009 154.845 27.4528C153.119 26.2759 151.191 25.4005 149.063 24.8264C146.963 24.2236 144.734 23.9222 142.375 23.9222C139.211 23.9222 136.248 24.5106 133.487 25.6875C130.726 26.8356 128.324 28.4431 126.282 30.5097C124.239 32.5764 122.628 35.0449 121.449 37.9153C120.299 40.7569 119.723 43.8856 119.723 47.3014C119.723 50.7458 120.299 53.9032 121.449 56.7736C122.628 59.6153 124.239 62.0694 126.282 64.1361C128.324 66.1741 130.726 67.7671 133.487 68.9153C136.248 70.0347 139.211 70.5944 142.375 70.5944C144.734 70.5944 146.963 70.3074 149.063 69.7333C151.163 69.1306 153.076 68.2551 154.801 67.1069C156.527 65.9301 158.023 64.4662 159.289 62.7153C160.554 60.9644 161.503 58.912 162.136 56.5583H170.118C169.399 60.1176 168.134 63.2319 166.322 65.9014C164.538 68.5421 162.41 70.7523 159.936 72.5319C157.462 74.2829 154.729 75.6032 151.738 76.4931C148.775 77.3542 145.726 77.7847 142.591 77.7847C139.714 77.7847 136.967 77.4259 134.35 76.7083C131.732 75.9907 129.287 74.9718 127.015 73.6514C124.743 72.331 122.686 70.7523 120.845 68.9153C119.004 67.0495 117.422 64.9972 116.099 62.7583C114.805 60.4907 113.798 58.0509 113.079 55.4389C112.36 52.8269 112 50.1143 112 47.3014Z" fill="#E6FFF8"/>
<path d="M176.979 54.7931C176.979 51.5782 177.554 48.5644 178.705 45.7514C179.884 42.9097 181.509 40.4412 183.58 38.3458C185.651 36.2505 188.082 34.6 190.872 33.3944C193.691 32.1889 196.74 31.5861 200.019 31.5861C203.298 31.5861 206.347 32.1889 209.166 33.3944C211.985 34.6 214.43 36.2505 216.501 38.3458C218.572 40.4412 220.197 42.8954 221.377 45.7083C222.556 48.5213 223.146 51.5495 223.146 54.7931C223.146 58.0079 222.556 61.0361 221.377 63.8778C220.197 66.6907 218.572 69.1449 216.501 71.2403C214.43 73.3356 211.985 74.9861 209.166 76.1917C206.347 77.3972 203.298 78 200.019 78C196.74 78 193.691 77.3972 190.872 76.1917C188.082 74.9861 185.651 73.3356 183.58 71.2403C181.538 69.1449 179.927 66.6907 178.748 63.8778C177.568 61.0361 176.979 58.0079 176.979 54.7931ZM184.573 54.7931C184.573 57.0032 184.961 59.0843 185.737 61.0361C186.543 62.9593 187.636 64.6384 189.017 66.0736C190.426 67.4801 192.066 68.5995 193.935 69.4319C195.834 70.2356 197.876 70.6375 200.062 70.6375C202.248 70.6375 204.276 70.2356 206.146 69.4319C208.044 68.5995 209.684 67.4801 211.065 66.0736C212.474 64.6384 213.567 62.9593 214.344 61.0361C215.149 59.113 215.552 57.0319 215.552 54.7931C215.552 52.5829 215.149 50.5162 214.344 48.5931C213.567 46.6699 212.474 44.9907 211.065 43.5556C209.684 42.1204 208.044 41.0009 206.146 40.1972C204.276 39.3648 202.248 38.9486 200.062 38.9486C197.876 38.9486 195.834 39.3648 193.935 40.1972C192.066 41.0009 190.426 42.1204 189.017 43.5556C187.636 44.962 186.543 46.6412 185.737 48.5931C184.961 50.5162 184.573 52.5829 184.573 54.7931Z" fill="#E6FFF8"/>
<path d="M297.358 76.6222H289.893V39.4222H269.183V76.6222H261.719V39.4222H241.008V76.6222H233.544V32.7056H297.358V76.6222Z" fill="#E6FFF8"/>
<path d="M305.556 39.5944V32.7056H314.789V16.0861L334.377 16V22.2861H322.34V32.7056H334.507V39.5944H322.383L322.34 76.6222H314.789L314.746 39.5944H305.556Z" fill="#E6FFF8"/>
<path d="M336.535 61.6819C336.535 59.4431 336.952 57.3477 337.786 55.3958C338.649 53.4153 339.814 51.6931 341.281 50.2292C342.777 48.7366 344.502 47.5741 346.458 46.7417C348.443 45.8806 350.557 45.45 352.801 45.45C355.476 45.45 357.907 46.0815 360.093 47.3444C362.308 48.5787 364.062 50.2148 365.357 52.2528L365.314 39.2931H338.908V32.7056H372.907V76.6222H365.572L365.529 70.9819C364.206 73.0773 362.423 74.7708 360.179 76.0625C357.964 77.3255 355.505 77.9569 352.801 77.9569C350.557 77.9569 348.443 77.5264 346.458 76.6653C344.502 75.8042 342.777 74.6417 341.281 73.1778C339.814 71.7139 338.649 69.9917 337.786 68.0111C336.952 66.0306 336.535 63.9208 336.535 61.6819ZM343.481 61.4667C343.481 62.8444 343.74 64.1505 344.258 65.3847C344.805 66.619 345.538 67.6954 346.458 68.6139C347.379 69.5037 348.443 70.2213 349.651 70.7667C350.888 71.2833 352.211 71.5417 353.621 71.5417C355.001 71.5417 356.31 71.2833 357.547 70.7667C358.784 70.2213 359.848 69.5037 360.74 68.6139C361.66 67.6954 362.38 66.619 362.897 65.3847C363.444 64.1505 363.717 62.8444 363.717 61.4667C363.717 60.0889 363.444 58.7829 362.897 57.5486C362.38 56.3144 361.66 55.238 360.74 54.3194C359.848 53.4009 358.784 52.6833 357.547 52.1667C356.31 51.6213 355.001 51.3486 353.621 51.3486C352.211 51.3486 350.888 51.6213 349.651 52.1667C348.443 52.6833 347.379 53.4009 346.458 54.3194C345.538 55.238 344.805 56.3144 344.258 57.5486C343.74 58.7829 343.481 60.0889 343.481 61.4667Z" fill="#E6FFF8"/>
<path d="M401.816 77.8708C398.738 77.8708 396.048 77.4546 393.747 76.6222C391.446 75.7898 389.519 74.6847 387.965 73.3069C386.441 71.9292 385.29 70.3648 384.514 68.6139C383.766 66.8343 383.392 64.9972 383.392 63.1028L390.684 63.1458C390.712 64.3514 390.971 65.4852 391.46 66.5472C391.949 67.5806 392.668 68.4847 393.618 69.2597C394.567 70.0347 395.732 70.6519 397.113 71.1111C398.493 71.5417 400.075 71.7569 401.859 71.7569C405.167 71.7569 407.655 71.1255 409.323 69.8625C411.02 68.5708 411.869 66.8199 411.869 64.6097C411.869 63.4042 411.61 62.3995 411.092 61.5958C410.603 60.7921 409.884 60.1176 408.935 59.5722C407.986 59.0269 406.835 58.5963 405.483 58.2806C404.131 57.9361 402.592 57.6204 400.866 57.3333C398.795 57.0176 396.825 56.587 394.955 56.0417C393.114 55.4676 391.489 54.6926 390.08 53.7167C388.67 52.712 387.548 51.4491 386.714 49.9278C385.88 48.4065 385.463 46.5407 385.463 44.3306C385.463 42.5222 385.794 40.8431 386.455 39.2931C387.117 37.7144 388.095 36.3509 389.389 35.2028C390.712 34.0259 392.352 33.1074 394.308 32.4472C396.293 31.787 398.594 31.4569 401.211 31.4569C403.771 31.4569 406.087 31.787 408.158 32.4472C410.258 33.1074 412.056 34.0259 413.551 35.2028C415.047 36.3509 416.198 37.7431 417.003 39.3792C417.809 40.9866 418.211 42.7519 418.211 44.675L410.747 44.6319C410.632 42.5653 409.74 40.9005 408.072 39.6375C406.432 38.3745 404.145 37.7431 401.211 37.7431C399.802 37.7431 398.565 37.9153 397.501 38.2597C396.465 38.6042 395.602 39.0778 394.912 39.6806C394.222 40.2546 393.704 40.9292 393.359 41.7042C393.042 42.4792 392.884 43.3116 392.884 44.2014C392.884 45.2347 393.042 46.1245 393.359 46.8708C393.704 47.5884 394.279 48.2199 395.085 48.7653C395.89 49.2819 396.969 49.7412 398.321 50.1431C399.673 50.5162 401.355 50.875 403.369 51.2194C405.411 51.5352 407.396 51.937 409.323 52.425C411.279 52.913 413.005 53.6306 414.501 54.5778C416.025 55.525 417.248 56.7736 418.168 58.3236C419.089 59.8449 419.549 61.7968 419.549 64.1792C419.549 66.4468 419.117 68.4417 418.254 70.1639C417.391 71.8574 416.169 73.2782 414.587 74.4264C413.034 75.5745 411.164 76.4356 408.978 77.0097C406.821 77.5838 404.433 77.8708 401.816 77.8708Z" fill="#E6FFF8"/>
<path d="M434.219 76.6222V39.6375H424.424V32.7056H434.219V20.5639H441.769V32.7056H457V39.6375H441.769V76.6222H434.219Z" fill="#E6FFF8"/>
<path d="M112 47.3014C112 44.4597 112.36 41.7329 113.079 39.1208C113.798 36.5088 114.805 34.069 116.099 31.8014C117.422 29.5338 119.004 27.4815 120.845 25.6444C122.686 23.8074 124.743 22.2287 127.015 20.9083C129.287 19.588 131.732 18.569 134.35 17.8514C136.967 17.1338 139.714 16.775 142.591 16.775C145.697 16.775 148.732 17.2199 151.695 18.1097C154.686 18.9995 157.419 20.3343 159.893 22.1139C162.395 23.8648 164.538 26.075 166.322 28.7444C168.134 31.3852 169.399 34.4708 170.118 38.0014H162.179C161.518 35.6477 160.554 33.5954 159.289 31.8444C158.052 30.0648 156.57 28.6009 154.845 27.4528C153.119 26.2759 151.191 25.4005 149.063 24.8264C146.963 24.2236 144.734 23.9222 142.375 23.9222C139.211 23.9222 136.248 24.5106 133.487 25.6875C130.726 26.8356 128.324 28.4431 126.282 30.5097C124.239 32.5764 122.628 35.0449 121.449 37.9153C120.299 40.7569 119.723 43.8856 119.723 47.3014C119.723 50.7458 120.299 53.9032 121.449 56.7736C122.628 59.6153 124.239 62.0694 126.282 64.1361C128.324 66.1741 130.726 67.7671 133.487 68.9153C136.248 70.0347 139.211 70.5944 142.375 70.5944C144.734 70.5944 146.963 70.3074 149.063 69.7333C151.163 69.1306 153.076 68.2551 154.801 67.1069C156.527 65.9301 158.023 64.4662 159.289 62.7153C160.554 60.9644 161.503 58.912 162.136 56.5583H170.118C169.399 60.1176 168.134 63.2319 166.322 65.9014C164.538 68.5421 162.41 70.7523 159.936 72.5319C157.462 74.2829 154.729 75.6032 151.738 76.4931C148.775 77.3542 145.726 77.7847 142.591 77.7847C139.714 77.7847 136.967 77.4259 134.35 76.7083C131.732 75.9907 129.287 74.9718 127.015 73.6514C124.743 72.331 122.686 70.7523 120.845 68.9153C119.004 67.0495 117.422 64.9972 116.099 62.7583C114.805 60.4907 113.798 58.0509 113.079 55.4389C112.36 52.8269 112 50.1143 112 47.3014Z" stroke="#E6FFF8" stroke-width="2"/>
<path d="M176.979 54.7931C176.979 51.5782 177.554 48.5644 178.705 45.7514C179.884 42.9097 181.509 40.4412 183.58 38.3458C185.651 36.2505 188.082 34.6 190.872 33.3944C193.691 32.1889 196.74 31.5861 200.019 31.5861C203.298 31.5861 206.347 32.1889 209.166 33.3944C211.985 34.6 214.43 36.2505 216.501 38.3458C218.572 40.4412 220.197 42.8954 221.377 45.7083C222.556 48.5213 223.146 51.5495 223.146 54.7931C223.146 58.0079 222.556 61.0361 221.377 63.8778C220.197 66.6907 218.572 69.1449 216.501 71.2403C214.43 73.3356 211.985 74.9861 209.166 76.1917C206.347 77.3972 203.298 78 200.019 78C196.74 78 193.691 77.3972 190.872 76.1917C188.082 74.9861 185.651 73.3356 183.58 71.2403C181.538 69.1449 179.927 66.6907 178.748 63.8778C177.568 61.0361 176.979 58.0079 176.979 54.7931ZM184.573 54.7931C184.573 57.0032 184.961 59.0843 185.737 61.0361C186.543 62.9593 187.636 64.6384 189.017 66.0736C190.426 67.4801 192.066 68.5995 193.935 69.4319C195.834 70.2356 197.876 70.6375 200.062 70.6375C202.248 70.6375 204.276 70.2356 206.146 69.4319C208.044 68.5995 209.684 67.4801 211.065 66.0736C212.474 64.6384 213.567 62.9593 214.344 61.0361C215.149 59.113 215.552 57.0319 215.552 54.7931C215.552 52.5829 215.149 50.5162 214.344 48.5931C213.567 46.6699 212.474 44.9907 211.065 43.5556C209.684 42.1204 208.044 41.0009 206.146 40.1972C204.276 39.3648 202.248 38.9486 200.062 38.9486C197.876 38.9486 195.834 39.3648 193.935 40.1972C192.066 41.0009 190.426 42.1204 189.017 43.5556C187.636 44.962 186.543 46.6412 185.737 48.5931C184.961 50.5162 184.573 52.5829 184.573 54.7931Z" stroke="#E6FFF8" stroke-width="2"/>
<path d="M297.358 76.6222H289.893V39.4222H269.183V76.6222H261.719V39.4222H241.008V76.6222H233.544V32.7056H297.358V76.6222Z" stroke="#E6FFF8" stroke-width="2"/>
<path d="M305.556 39.5944V32.7056H314.789V16.0861L334.377 16V22.2861H322.34V32.7056H334.507V39.5944H322.383L322.34 76.6222H314.789L314.746 39.5944H305.556Z" stroke="#E6FFF8" stroke-width="2"/>
<path d="M336.535 61.6819C336.535 59.4431 336.952 57.3477 337.786 55.3958C338.649 53.4153 339.814 51.6931 341.281 50.2292C342.777 48.7366 344.502 47.5741 346.458 46.7417C348.443 45.8806 350.557 45.45 352.801 45.45C355.476 45.45 357.907 46.0815 360.093 47.3444C362.308 48.5787 364.062 50.2148 365.357 52.2528L365.314 39.2931H338.908V32.7056H372.907V76.6222H365.572L365.529 70.9819C364.206 73.0773 362.423 74.7708 360.179 76.0625C357.964 77.3255 355.505 77.9569 352.801 77.9569C350.557 77.9569 348.443 77.5264 346.458 76.6653C344.502 75.8042 342.777 74.6417 341.281 73.1778C339.814 71.7139 338.649 69.9917 337.786 68.0111C336.952 66.0306 336.535 63.9208 336.535 61.6819ZM343.481 61.4667C343.481 62.8444 343.74 64.1505 344.258 65.3847C344.805 66.619 345.538 67.6954 346.458 68.6139C347.379 69.5037 348.443 70.2213 349.651 70.7667C350.888 71.2833 352.211 71.5417 353.621 71.5417C355.001 71.5417 356.31 71.2833 357.547 70.7667C358.784 70.2213 359.848 69.5037 360.74 68.6139C361.66 67.6954 362.38 66.619 362.897 65.3847C363.444 64.1505 363.717 62.8444 363.717 61.4667C363.717 60.0889 363.444 58.7829 362.897 57.5486C362.38 56.3144 361.66 55.238 360.74 54.3194C359.848 53.4009 358.784 52.6833 357.547 52.1667C356.31 51.6213 355.001 51.3486 353.621 51.3486C352.211 51.3486 350.888 51.6213 349.651 52.1667C348.443 52.6833 347.379 53.4009 346.458 54.3194C345.538 55.238 344.805 56.3144 344.258 57.5486C343.74 58.7829 343.481 60.0889 343.481 61.4667Z" stroke="#E6FFF8" stroke-width="2"/>
<path d="M401.816 77.8708C398.738 77.8708 396.048 77.4546 393.747 76.6222C391.446 75.7898 389.519 74.6847 387.965 73.3069C386.441 71.9292 385.29 70.3648 384.514 68.6139C383.766 66.8343 383.392 64.9972 383.392 63.1028L390.684 63.1458C390.712 64.3514 390.971 65.4852 391.46 66.5472C391.949 67.5806 392.668 68.4847 393.618 69.2597C394.567 70.0347 395.732 70.6519 397.113 71.1111C398.493 71.5417 400.075 71.7569 401.859 71.7569C405.167 71.7569 407.655 71.1255 409.323 69.8625C411.02 68.5708 411.869 66.8199 411.869 64.6097C411.869 63.4042 411.61 62.3995 411.092 61.5958C410.603 60.7921 409.884 60.1176 408.935 59.5722C407.986 59.0269 406.835 58.5963 405.483 58.2806C404.131 57.9361 402.592 57.6204 400.866 57.3333C398.795 57.0176 396.825 56.587 394.955 56.0417C393.114 55.4676 391.489 54.6926 390.08 53.7167C388.67 52.712 387.548 51.4491 386.714 49.9278C385.88 48.4065 385.463 46.5407 385.463 44.3306C385.463 42.5222 385.794 40.8431 386.455 39.2931C387.117 37.7144 388.095 36.3509 389.389 35.2028C390.712 34.0259 392.352 33.1074 394.308 32.4472C396.293 31.787 398.594 31.4569 401.211 31.4569C403.771 31.4569 406.087 31.787 408.158 32.4472C410.258 33.1074 412.056 34.0259 413.551 35.2028C415.047 36.3509 416.198 37.7431 417.003 39.3792C417.809 40.9866 418.211 42.7519 418.211 44.675L410.747 44.6319C410.632 42.5653 409.74 40.9005 408.072 39.6375C406.432 38.3745 404.145 37.7431 401.211 37.7431C399.802 37.7431 398.565 37.9153 397.501 38.2597C396.465 38.6042 395.602 39.0778 394.912 39.6806C394.222 40.2546 393.704 40.9292 393.359 41.7042C393.042 42.4792 392.884 43.3116 392.884 44.2014C392.884 45.2347 393.042 46.1245 393.359 46.8708C393.704 47.5884 394.279 48.2199 395.085 48.7653C395.89 49.2819 396.969 49.7412 398.321 50.1431C399.673 50.5162 401.355 50.875 403.369 51.2194C405.411 51.5352 407.396 51.937 409.323 52.425C411.279 52.913 413.005 53.6306 414.501 54.5778C416.025 55.525 417.248 56.7736 418.168 58.3236C419.089 59.8449 419.549 61.7968 419.549 64.1792C419.549 66.4468 419.117 68.4417 418.254 70.1639C417.391 71.8574 416.169 73.2782 414.587 74.4264C413.034 75.5745 411.164 76.4356 408.978 77.0097C406.821 77.5838 404.433 77.8708 401.816 77.8708Z" stroke="#E6FFF8" stroke-width="2"/>
<path d="M434.219 76.6222V39.6375H424.424V32.7056H434.219V20.5639H441.769V32.7056H457V39.6375H441.769V76.6222H434.219Z" stroke="#E6FFF8" stroke-width="2"/>
<g clip-path="url(#clip0_2_123)">
<rect width="93" height="93" rx="24" fill="#01AF3E"/>
<path d="M13.5977 21.057C17.6233 16.3104 17.852 16.2801 29.487 25.0348C49.1276 39.7491 50.1799 49.4392 34.23 69.5754C26.2702 79.7585 26.0415 79.7888 20.9178 76.2556L15.535 72.5227L25.05 60.027L34.3364 47.5616L22.122 37.9475C15.3819 32.7563 9.84654 27.8735 9.75504 27.1835C9.66354 26.4935 11.3866 23.6906 13.5977 21.057Z" fill="white"/>
<path d="M51.304 20.5317C54.7144 16.3555 55.6918 16.6914 68.407 26.4095C86.6019 40.5212 87.5119 47.3827 74.0823 65.6883C64.4003 78.8421 64.4306 79.0708 59.0116 75.1346L53.3937 71.4576L62.9376 59.0203L72.2523 46.6135L60.0257 37.0633C53.2789 31.9068 47.7385 27.0558 47.6475 26.3696C47.5565 25.6835 49.0865 23.1531 51.304 20.5317Z" fill="white"/>
</g>
<defs>
<clipPath id="clip0_2_123">
<rect width="93" height="93" rx="24" fill="white"/>
</clipPath>
</defs>
</svg>
