<svg width="281" height="65" viewBox="0 0 281 65" fill="none" xmlns="http://www.w3.org/2000/svg">
<path d="M87 32.5321C87 30.9405 87.2011 29.4132 87.6034 27.9501C88.0057 26.4871 88.5689 25.1206 89.293 23.8505C90.0332 22.5804 90.9183 21.4309 91.9481 20.4019C92.9779 19.373 94.1285 18.4887 95.3997 17.7492C96.6709 17.0096 98.0387 16.4389 99.503 16.037C100.967 15.635 102.504 15.4341 104.113 15.4341C105.851 15.4341 107.549 15.6833 109.206 16.1817C110.88 16.6801 112.408 17.4276 113.792 18.4244C115.192 19.4051 116.391 20.6431 117.389 22.1383C118.402 23.6174 119.11 25.3456 119.513 27.3231H115.071C114.701 26.0048 114.162 24.8553 113.454 23.8746C112.762 22.8778 111.934 22.0579 110.968 21.4148C110.003 20.7556 108.925 20.2653 107.734 19.9437C106.559 19.6061 105.312 19.4373 103.992 19.4373C102.222 19.4373 100.565 19.7669 99.0203 20.426C97.4755 21.0691 96.1319 21.9694 94.9894 23.127C93.8469 24.2846 92.9458 25.6672 92.286 27.2749C91.6424 28.8665 91.3205 30.619 91.3205 32.5321C91.3205 34.4614 91.6424 36.2299 92.286 37.8376C92.9458 39.4292 93.8469 40.8038 94.9894 41.9614C96.1319 43.1029 97.4755 43.9951 99.0203 44.6382C100.565 45.2652 102.222 45.5787 103.992 45.5787C105.312 45.5787 106.559 45.418 107.734 45.0964C108.908 44.7588 109.978 44.2684 110.944 43.6254C111.909 42.9662 112.746 42.1463 113.454 41.1656C114.162 40.1849 114.693 39.0353 115.047 37.717H119.513C119.11 39.7106 118.402 41.455 117.389 42.9501C116.391 44.4292 115.2 45.6672 113.816 46.6639C112.432 47.6446 110.904 48.3842 109.23 48.8826C107.573 49.3649 105.867 49.6061 104.113 49.6061C102.504 49.6061 100.967 49.4051 99.503 49.0032C98.0387 48.6012 96.6709 48.0305 95.3997 47.291C94.1285 46.5514 92.9779 45.6672 91.9481 44.6382C90.9183 43.5932 90.0332 42.4437 89.293 41.1897C88.5689 39.9196 88.0057 38.553 87.6034 37.09C87.2011 35.627 87 34.1077 87 32.5321Z" fill="black"/>
<path d="M123.35 36.7283C123.35 34.9276 123.672 33.2395 124.316 31.664C124.976 30.0723 125.885 28.6897 127.043 27.5161C128.202 26.3424 129.562 25.418 131.123 24.7428C132.7 24.0675 134.405 23.7299 136.24 23.7299C138.074 23.7299 139.78 24.0675 141.357 24.7428C142.934 25.418 144.301 26.3424 145.46 27.5161C146.619 28.6897 147.528 30.0643 148.187 31.6398C148.847 33.2154 149.177 34.9115 149.177 36.7283C149.177 38.5289 148.847 40.225 148.187 41.8167C147.528 43.3922 146.619 44.7668 145.46 45.9405C144.301 47.1141 142.934 48.0385 141.357 48.7138C139.78 49.389 138.074 49.7266 136.24 49.7266C134.405 49.7266 132.7 49.389 131.123 48.7138C129.562 48.0385 128.202 47.1141 127.043 45.9405C125.901 44.7668 125 43.3922 124.34 41.8167C123.68 40.225 123.35 38.5289 123.35 36.7283ZM127.599 36.7283C127.599 37.9662 127.816 39.1318 128.25 40.225C128.701 41.3022 129.312 42.2427 130.085 43.0466C130.873 43.8344 131.79 44.4614 132.836 44.9276C133.898 45.3778 135.041 45.6029 136.264 45.6029C137.487 45.6029 138.621 45.3778 139.667 44.9276C140.729 44.4614 141.646 43.8344 142.419 43.0466C143.207 42.2427 143.819 41.3022 144.253 40.225C144.704 39.1479 144.929 37.9823 144.929 36.7283C144.929 35.4903 144.704 34.3328 144.253 33.2556C143.819 32.1784 143.207 31.2379 142.419 30.4341C141.646 29.6302 140.729 29.0032 139.667 28.553C138.621 28.0868 137.487 27.8537 136.264 27.8537C135.041 27.8537 133.898 28.0868 132.836 28.553C131.79 29.0032 130.873 29.6302 130.085 30.4341C129.312 31.2218 128.701 32.1624 128.25 33.2556C127.816 34.3328 127.599 35.4903 127.599 36.7283Z" fill="black"/>
<path d="M190.693 48.9549H186.517V28.119H174.931V48.9549H170.756V28.119H159.17V48.9549H154.994V24.3569H190.693V48.9549Z" fill="black"/>
<path d="M195.279 28.2154V24.3569H200.444V15.0482L211.402 15V18.5209H204.668V24.3569H211.475V28.2154H204.692L204.668 48.9549H200.444L200.42 28.2154H195.279Z" fill="black"/>
<path d="M212.609 40.5868C212.609 39.3328 212.843 38.1591 213.309 37.0659C213.792 35.9566 214.444 34.9919 215.264 34.172C216.101 33.336 217.067 32.6849 218.161 32.2186C219.271 31.7363 220.454 31.4952 221.709 31.4952C223.205 31.4952 224.565 31.8489 225.788 32.5562C227.027 33.2476 228.009 34.164 228.733 35.3054L228.709 28.0466H213.937V24.3569H232.957V48.9549H228.854L228.829 45.7958C228.089 46.9694 227.092 47.918 225.836 48.6414C224.597 49.3488 223.222 49.7025 221.709 49.7025C220.454 49.7025 219.271 49.4614 218.161 48.9791C217.067 48.4967 216.101 47.8456 215.264 47.0257C214.444 46.2057 213.792 45.2411 213.309 44.1318C212.843 43.0225 212.609 41.8408 212.609 40.5868ZM216.495 40.4662C216.495 41.2379 216.64 41.9694 216.93 42.6607C217.236 43.3521 217.646 43.9549 218.161 44.4694C218.676 44.9678 219.271 45.3697 219.947 45.6752C220.639 45.9646 221.379 46.1093 222.168 46.1093C222.94 46.1093 223.672 45.9646 224.364 45.6752C225.056 45.3697 225.651 44.9678 226.15 44.4694C226.665 43.9549 227.067 43.3521 227.357 42.6607C227.663 41.9694 227.816 41.2379 227.816 40.4662C227.816 39.6945 227.663 38.963 227.357 38.2717C227.067 37.5804 226.665 36.9775 226.15 36.463C225.651 35.9485 225.056 35.5466 224.364 35.2572C223.672 34.9517 222.94 34.799 222.168 34.799C221.379 34.799 220.639 34.9517 219.947 35.2572C219.271 35.5466 218.676 35.9485 218.161 36.463C217.646 36.9775 217.236 37.5804 216.93 38.2717C216.64 38.963 216.495 39.6945 216.495 40.4662Z" fill="black"/>
<path d="M249.129 49.6543C247.407 49.6543 245.902 49.4212 244.615 48.9549C243.328 48.4887 242.25 47.8697 241.381 47.098C240.528 46.3263 239.884 45.4501 239.45 44.4694C239.031 43.4726 238.822 42.4437 238.822 41.3826L242.901 41.4067C242.917 42.082 243.062 42.717 243.336 43.3119C243.609 43.8906 244.012 44.3971 244.543 44.8312C245.074 45.2652 245.725 45.6109 246.498 45.8681C247.27 46.1093 248.155 46.2299 249.153 46.2299C251.003 46.2299 252.395 45.8762 253.329 45.1688C254.278 44.4453 254.753 43.4646 254.753 42.2267C254.753 41.5514 254.608 40.9887 254.318 40.5385C254.045 40.0884 253.642 39.7106 253.111 39.4051C252.58 39.0996 251.937 38.8585 251.18 38.6816C250.424 38.4887 249.563 38.3119 248.598 38.1511C247.439 37.9742 246.337 37.7331 245.291 37.4276C244.261 37.1061 243.352 36.672 242.563 36.1254C241.775 35.5627 241.147 34.8553 240.681 34.0032C240.214 33.1511 239.981 32.1061 239.981 30.8681C239.981 29.8553 240.166 28.9148 240.536 28.0466C240.906 27.1624 241.453 26.3987 242.177 25.7556C242.917 25.0964 243.835 24.582 244.929 24.2122C246.039 23.8424 247.326 23.6575 248.791 23.6575C250.223 23.6575 251.518 23.8424 252.677 24.2122C253.852 24.582 254.857 25.0964 255.694 25.7556C256.531 26.3987 257.174 27.1784 257.625 28.0948C258.075 28.9952 258.301 29.9839 258.301 31.0611L254.125 31.037C254.061 29.8794 253.562 28.9469 252.629 28.2395C251.711 27.5321 250.432 27.1784 248.791 27.1784C248.002 27.1784 247.31 27.2749 246.715 27.4678C246.136 27.6608 245.653 27.926 245.267 28.2636C244.881 28.5852 244.591 28.963 244.398 29.3971C244.221 29.8312 244.132 30.2974 244.132 30.7958C244.132 31.3746 244.221 31.873 244.398 32.291C244.591 32.6929 244.913 33.0466 245.363 33.3521C245.814 33.6415 246.417 33.8987 247.174 34.1238C247.93 34.3328 248.871 34.5337 249.998 34.7267C251.14 34.9035 252.25 35.1286 253.329 35.4019C254.423 35.6752 255.388 36.0771 256.225 36.6077C257.078 37.1382 257.762 37.8376 258.277 38.7058C258.792 39.5578 259.049 40.6511 259.049 41.9855C259.049 43.2556 258.808 44.373 258.325 45.3376C257.842 46.2861 257.158 47.082 256.273 47.725C255.404 48.3681 254.358 48.8504 253.135 49.172C251.929 49.4935 250.593 49.6543 249.129 49.6543Z" fill="black"/>
<path d="M267.256 48.9549V28.2395H261.777V24.3569H267.256V17.5563H271.48V24.3569H280V28.2395H271.48V48.9549H267.256Z" fill="black"/>
<path d="M87 32.5321C87 30.9405 87.2011 29.4132 87.6034 27.9501C88.0057 26.4871 88.5689 25.1206 89.293 23.8505C90.0332 22.5804 90.9183 21.4309 91.9481 20.4019C92.9779 19.373 94.1285 18.4887 95.3997 17.7492C96.6709 17.0096 98.0387 16.4389 99.503 16.037C100.967 15.635 102.504 15.4341 104.113 15.4341C105.851 15.4341 107.549 15.6833 109.206 16.1817C110.88 16.6801 112.408 17.4276 113.792 18.4244C115.192 19.4051 116.391 20.6431 117.389 22.1383C118.402 23.6174 119.11 25.3456 119.513 27.3231H115.071C114.701 26.0048 114.162 24.8553 113.454 23.8746C112.762 22.8778 111.934 22.0579 110.968 21.4148C110.003 20.7556 108.925 20.2653 107.734 19.9437C106.559 19.6061 105.312 19.4373 103.992 19.4373C102.222 19.4373 100.565 19.7669 99.0203 20.426C97.4755 21.0691 96.1319 21.9694 94.9894 23.127C93.8469 24.2846 92.9458 25.6672 92.286 27.2749C91.6424 28.8665 91.3205 30.619 91.3205 32.5321C91.3205 34.4614 91.6424 36.2299 92.286 37.8376C92.9458 39.4292 93.8469 40.8038 94.9894 41.9614C96.1319 43.1029 97.4755 43.9951 99.0203 44.6382C100.565 45.2652 102.222 45.5787 103.992 45.5787C105.312 45.5787 106.559 45.418 107.734 45.0964C108.908 44.7588 109.978 44.2684 110.944 43.6254C111.909 42.9662 112.746 42.1463 113.454 41.1656C114.162 40.1849 114.693 39.0353 115.047 37.717H119.513C119.11 39.7106 118.402 41.455 117.389 42.9501C116.391 44.4292 115.2 45.6672 113.816 46.6639C112.432 47.6446 110.904 48.3842 109.23 48.8826C107.573 49.3649 105.867 49.6061 104.113 49.6061C102.504 49.6061 100.967 49.4051 99.503 49.0032C98.0387 48.6012 96.6709 48.0305 95.3997 47.291C94.1285 46.5514 92.9779 45.6672 91.9481 44.6382C90.9183 43.5932 90.0332 42.4437 89.293 41.1897C88.5689 39.9196 88.0057 38.553 87.6034 37.09C87.2011 35.627 87 34.1077 87 32.5321Z" stroke="black"/>
<path d="M123.35 36.7283C123.35 34.9276 123.672 33.2395 124.316 31.664C124.976 30.0723 125.885 28.6897 127.043 27.5161C128.202 26.3424 129.562 25.418 131.123 24.7428C132.7 24.0675 134.405 23.7299 136.24 23.7299C138.074 23.7299 139.78 24.0675 141.357 24.7428C142.934 25.418 144.301 26.3424 145.46 27.5161C146.619 28.6897 147.528 30.0643 148.187 31.6398C148.847 33.2154 149.177 34.9115 149.177 36.7283C149.177 38.5289 148.847 40.225 148.187 41.8167C147.528 43.3922 146.619 44.7668 145.46 45.9405C144.301 47.1141 142.934 48.0385 141.357 48.7138C139.78 49.389 138.074 49.7266 136.24 49.7266C134.405 49.7266 132.7 49.389 131.123 48.7138C129.562 48.0385 128.202 47.1141 127.043 45.9405C125.901 44.7668 125 43.3922 124.34 41.8167C123.68 40.225 123.35 38.5289 123.35 36.7283ZM127.599 36.7283C127.599 37.9662 127.816 39.1318 128.25 40.225C128.701 41.3022 129.312 42.2427 130.085 43.0466C130.873 43.8344 131.79 44.4614 132.836 44.9276C133.898 45.3778 135.041 45.6029 136.264 45.6029C137.487 45.6029 138.621 45.3778 139.667 44.9276C140.729 44.4614 141.646 43.8344 142.419 43.0466C143.207 42.2427 143.819 41.3022 144.253 40.225C144.704 39.1479 144.929 37.9823 144.929 36.7283C144.929 35.4903 144.704 34.3328 144.253 33.2556C143.819 32.1784 143.207 31.2379 142.419 30.4341C141.646 29.6302 140.729 29.0032 139.667 28.553C138.621 28.0868 137.487 27.8537 136.264 27.8537C135.041 27.8537 133.898 28.0868 132.836 28.553C131.79 29.0032 130.873 29.6302 130.085 30.4341C129.312 31.2218 128.701 32.1624 128.25 33.2556C127.816 34.3328 127.599 35.4903 127.599 36.7283Z" stroke="black"/>
<path d="M190.693 48.9549H186.517V28.119H174.931V48.9549H170.756V28.119H159.17V48.9549H154.994V24.3569H190.693V48.9549Z" stroke="black"/>
<path d="M195.279 28.2154V24.3569H200.444V15.0482L211.402 15V18.5209H204.668V24.3569H211.475V28.2154H204.692L204.668 48.9549H200.444L200.42 28.2154H195.279Z" stroke="black"/>
<path d="M212.609 40.5868C212.609 39.3328 212.843 38.1591 213.309 37.0659C213.792 35.9566 214.444 34.9919 215.264 34.172C216.101 33.336 217.067 32.6849 218.161 32.2186C219.271 31.7363 220.454 31.4952 221.709 31.4952C223.205 31.4952 224.565 31.8489 225.788 32.5562C227.027 33.2476 228.009 34.164 228.733 35.3054L228.709 28.0466H213.937V24.3569H232.957V48.9549H228.854L228.829 45.7958C228.089 46.9694 227.092 47.918 225.836 48.6414C224.597 49.3488 223.222 49.7025 221.709 49.7025C220.454 49.7025 219.271 49.4614 218.161 48.9791C217.067 48.4967 216.101 47.8456 215.264 47.0257C214.444 46.2057 213.792 45.2411 213.309 44.1318C212.843 43.0225 212.609 41.8408 212.609 40.5868ZM216.495 40.4662C216.495 41.2379 216.64 41.9694 216.93 42.6607C217.236 43.3521 217.646 43.9549 218.161 44.4694C218.676 44.9678 219.271 45.3697 219.947 45.6752C220.639 45.9646 221.379 46.1093 222.168 46.1093C222.94 46.1093 223.672 45.9646 224.364 45.6752C225.056 45.3697 225.651 44.9678 226.15 44.4694C226.665 43.9549 227.067 43.3521 227.357 42.6607C227.663 41.9694 227.816 41.2379 227.816 40.4662C227.816 39.6945 227.663 38.963 227.357 38.2717C227.067 37.5804 226.665 36.9775 226.15 36.463C225.651 35.9485 225.056 35.5466 224.364 35.2572C223.672 34.9517 222.94 34.799 222.168 34.799C221.379 34.799 220.639 34.9517 219.947 35.2572C219.271 35.5466 218.676 35.9485 218.161 36.463C217.646 36.9775 217.236 37.5804 216.93 38.2717C216.64 38.963 216.495 39.6945 216.495 40.4662Z" stroke="black"/>
<path d="M249.129 49.6543C247.407 49.6543 245.902 49.4212 244.615 48.9549C243.328 48.4887 242.25 47.8697 241.381 47.098C240.528 46.3263 239.884 45.4501 239.45 44.4694C239.031 43.4726 238.822 42.4437 238.822 41.3826L242.901 41.4067C242.917 42.082 243.062 42.717 243.336 43.3119C243.609 43.8906 244.012 44.3971 244.543 44.8312C245.074 45.2652 245.725 45.6109 246.498 45.8681C247.27 46.1093 248.155 46.2299 249.153 46.2299C251.003 46.2299 252.395 45.8762 253.329 45.1688C254.278 44.4453 254.753 43.4646 254.753 42.2267C254.753 41.5514 254.608 40.9887 254.318 40.5385C254.045 40.0884 253.642 39.7106 253.111 39.4051C252.58 39.0996 251.937 38.8585 251.18 38.6816C250.424 38.4887 249.563 38.3119 248.598 38.1511C247.439 37.9742 246.337 37.7331 245.291 37.4276C244.261 37.1061 243.352 36.672 242.563 36.1254C241.775 35.5627 241.147 34.8553 240.681 34.0032C240.214 33.1511 239.981 32.1061 239.981 30.8681C239.981 29.8553 240.166 28.9148 240.536 28.0466C240.906 27.1624 241.453 26.3987 242.177 25.7556C242.917 25.0964 243.835 24.582 244.929 24.2122C246.039 23.8424 247.326 23.6575 248.791 23.6575C250.223 23.6575 251.518 23.8424 252.677 24.2122C253.852 24.582 254.857 25.0964 255.694 25.7556C256.531 26.3987 257.174 27.1784 257.625 28.0948C258.075 28.9952 258.301 29.9839 258.301 31.0611L254.125 31.037C254.061 29.8794 253.562 28.9469 252.629 28.2395C251.711 27.5321 250.432 27.1784 248.791 27.1784C248.002 27.1784 247.31 27.2749 246.715 27.4678C246.136 27.6608 245.653 27.926 245.267 28.2636C244.881 28.5852 244.591 28.963 244.398 29.3971C244.221 29.8312 244.132 30.2974 244.132 30.7958C244.132 31.3746 244.221 31.873 244.398 32.291C244.591 32.6929 244.913 33.0466 245.363 33.3521C245.814 33.6415 246.417 33.8987 247.174 34.1238C247.93 34.3328 248.871 34.5337 249.998 34.7267C251.14 34.9035 252.25 35.1286 253.329 35.4019C254.423 35.6752 255.388 36.0771 256.225 36.6077C257.078 37.1382 257.762 37.8376 258.277 38.7058C258.792 39.5578 259.049 40.6511 259.049 41.9855C259.049 43.2556 258.808 44.373 258.325 45.3376C257.842 46.2861 257.158 47.082 256.273 47.725C255.404 48.3681 254.358 48.8504 253.135 49.172C251.929 49.4935 250.593 49.6543 249.129 49.6543Z" stroke="black"/>
<path d="M267.256 48.9549V28.2395H261.777V24.3569H267.256V17.5563H271.48V24.3569H280V28.2395H271.48V48.9549H267.256Z" stroke="black"/>
<path d="M14.2254 18.723C16.4591 16.0972 16.5857 16.0801 23.008 20.895C33.8495 28.9874 34.4172 34.3343 25.5651 45.4722C21.1473 51.1046 21.0207 51.1217 18.1921 49.1791L15.2203 47.1267L20.5018 40.2156L25.6567 33.3215L18.9151 28.0331C15.1949 25.1779 12.1405 22.491 12.0909 22.1103C12.0413 21.7296 12.9986 20.1799 14.2254 18.723Z" fill="black"/>
<path d="M37.3164 18.3844C39.209 16.0743 39.749 16.2582 46.7674 21.6032C56.8102 29.3652 57.3033 33.1511 49.848 43.2748C44.4732 50.5494 44.4896 50.6756 41.4982 48.5111L38.3964 46.4899L43.6937 39.611L48.8642 32.7491L42.1158 27.4961C38.3918 24.66 35.3346 21.9907 35.2853 21.6121C35.236 21.2335 36.086 19.8346 37.3164 18.3844Z" fill="black"/>
<path d="M28.4053 1H37.5947C44.318 1 49.2603 1.00211 53.0459 1.50977C56.803 2.01362 59.2707 2.9991 61.1338 4.85742C62.9964 6.71536 63.9843 9.17562 64.4893 12.9219C64.9981 16.6973 65 21.6266 65 28.333V36.667C65 43.3734 64.9981 48.3027 64.4893 52.0781C63.9843 55.8244 62.9964 58.2846 61.1338 60.1426C59.2707 62.0009 56.803 62.9864 53.0459 63.4902C49.2603 63.9979 44.318 64 37.5947 64H28.4053C21.682 64 16.7397 63.9979 12.9541 63.4902C9.19701 62.9864 6.72925 62.0009 4.86621 60.1426C3.00357 58.2846 2.01572 55.8244 1.51074 52.0781C1.00187 48.3027 1 43.3734 1 36.667V28.333C1 21.6266 1.00187 16.6973 1.51074 12.9219C2.01572 9.17562 3.00357 6.71536 4.86621 4.85742C6.72925 2.99911 9.19701 2.01362 12.9541 1.50977C16.7397 1.00211 21.682 1 28.4053 1ZM17.2812 16.0469C16.4365 15.8426 15.7192 16.0041 15.0674 16.4561C14.5104 16.8423 13.9931 17.453 13.4639 18.0752L13.4609 18.0791C12.8207 18.8394 12.2459 19.6283 11.832 20.2891C11.6264 20.6175 11.4486 20.9324 11.3223 21.207C11.2595 21.3434 11.2006 21.4896 11.1582 21.6348C11.123 21.7553 11.0662 21.9828 11.0996 22.2393C11.1326 22.4923 11.2516 22.6817 11.2891 22.7412C11.347 22.8332 11.4139 22.9196 11.4756 22.9941C11.6008 23.1455 11.7642 23.3186 11.9492 23.5029C12.3232 23.8754 12.8449 24.3529 13.4697 24.8975C14.7208 25.9879 16.4277 27.3837 18.2979 28.8193V28.8203L24.2695 33.5049L19.707 39.6084L14.4258 46.5195L13.7891 47.3535L14.6523 47.9492L17.624 50.002L17.626 50.0039C18.2998 50.4666 18.9455 50.9104 19.5586 51.1455C20.2644 51.416 20.9777 51.4338 21.7275 51.0615C22.3828 50.7361 23.0101 50.1364 23.6953 49.3643C24.396 48.5746 25.2499 47.4921 26.3467 46.0938L26.3477 46.0947C30.7753 40.5238 33.1022 36.1151 32.666 31.9375C32.2547 27.9989 29.4277 24.6 24.5986 20.8486L23.6064 20.0938C22.008 18.8954 20.7728 17.9757 19.7959 17.3232C18.8392 16.6842 18.0243 16.2266 17.2812 16.0469ZM40.4424 16.1768C39.6235 15.8979 38.8641 15.8957 38.1396 16.2764C37.5142 16.605 37.0121 17.1784 36.5537 17.7373C35.9124 18.4932 35.3618 19.2447 34.9717 19.8711C34.7779 20.1823 34.6127 20.4815 34.4951 20.7461C34.4366 20.8778 34.3815 21.0199 34.3428 21.1631C34.309 21.2878 34.2626 21.5009 34.2939 21.7412C34.3271 21.9958 34.4469 22.186 34.4844 22.2451C34.5426 22.3369 34.6101 22.4229 34.6719 22.4971C34.7974 22.6477 34.9612 22.8207 35.1465 23.0039C35.5208 23.374 36.0427 23.8478 36.668 24.3887C37.9221 25.4736 39.6344 26.8627 41.5098 28.291L47.4727 32.9326L42.9014 39.001L37.6045 45.8799L36.9443 46.7373L37.8506 47.3281L40.9307 49.335C41.6289 49.8402 42.3112 50.3357 42.9736 50.5713C43.3397 50.7015 43.7357 50.7682 44.1602 50.7158C44.5816 50.6638 44.9647 50.5023 45.3203 50.2734C45.9933 49.8404 46.6781 49.0898 47.4775 48.0908C48.2939 47.0706 49.3159 45.6779 50.6523 43.8691L50.6533 43.8682C54.3601 38.8346 56.3693 35.0467 55.8594 31.4141C55.3494 27.7825 52.3729 24.6724 47.3789 20.8125V20.8115L47.373 20.8076C45.6215 19.4737 44.2527 18.4452 43.1621 17.6963C42.0867 16.9578 41.206 16.4369 40.4424 16.1768ZM16.207 18.0996C16.4077 17.9605 16.542 17.9253 16.8105 17.9902C17.181 18.0798 17.7419 18.3567 18.6846 18.9863C19.6072 19.6026 20.7962 20.4868 22.4082 21.6953L22.4102 21.6963C27.8178 25.7327 30.3343 28.8658 30.6768 32.1455C31.0216 35.4488 29.2065 39.2829 24.7822 44.8496L24.7783 44.8555C23.6685 46.2705 22.8522 47.3012 22.1992 48.0371C21.5299 48.7914 21.12 49.1304 20.8379 49.2705C20.6504 49.3636 20.5258 49.3738 20.2744 49.2773C19.9302 49.1454 19.4982 48.863 18.7578 48.3545L16.6514 46.8994L21.2959 40.8232H21.2969L21.3027 40.8145L26.458 33.9199L27.043 33.1377L26.2744 32.5342L19.5322 27.2461L19.5244 27.2402L18.1758 26.1895C16.8679 25.1558 15.6957 24.1849 14.7832 23.3896C14.1734 22.8582 13.6892 22.4135 13.3604 22.0859C13.3002 22.026 13.2475 21.9713 13.2012 21.9229C13.2794 21.7692 13.3867 21.5752 13.5273 21.3506C13.8857 20.7783 14.4022 20.0662 14.9873 19.3711C15.5749 18.6803 15.9114 18.3046 16.207 18.0996ZM39.0693 18.0459C39.1977 17.9784 39.3673 17.9231 39.7969 18.0693C40.2821 18.2346 40.9715 18.6177 42.0303 19.3447C43.0738 20.0613 44.404 21.0603 46.1611 22.3984C51.206 26.2981 53.4954 28.9607 53.8789 31.6924C54.2624 34.4239 52.7917 37.5913 49.0439 42.6807C47.6931 44.509 46.7016 45.86 45.916 46.8418C45.1134 47.8448 44.6069 48.3546 44.2383 48.5918C44.0731 48.6981 43.9727 48.7243 43.915 48.7314C43.8603 48.7382 43.7806 48.7352 43.6436 48.6865C43.3058 48.5663 42.8744 48.2731 42.084 47.7012L42.0645 47.6865L42.0439 47.6729L39.8477 46.2422L44.4863 40.2207L44.4922 40.2129L49.6631 33.3506L50.2549 32.5645L49.4785 31.96L42.7305 26.707L42.7217 26.7002C40.8733 25.2925 39.1942 23.9293 37.9766 22.876C37.3662 22.348 36.8818 21.9064 36.5527 21.5811C36.4921 21.5211 36.4392 21.4664 36.3926 21.418C36.4599 21.2855 36.5504 21.1206 36.6699 20.9287C37.0001 20.3985 37.4901 19.7255 38.0791 19.0312L38.085 19.0244L38.0898 19.0186C38.5747 18.4267 38.8469 18.1629 39.0693 18.0459Z" stroke="black" stroke-width="2"/>
</svg>
